# xmcd CD database file
#
# Track frame offsets:
#	150
#	25836
#	47359
#	63883
#	93950
#	120076
#	138556
#	153015
#	174869
#	200040
#	215133
#	235241
#
# Disc length: 3462 seconds
#
# Revision: 0
# Processed by: cddbd v1.5.2PL0 Copyright (c) Steve Scherf et al.
# Submitted via: CDex 1.51
#
DISCID=940d840c
DTITLE=Mel Brown - Love, Lost And Found
DYEAR=2010
DGENRE=Blues
TTITLE0=Love, Lost And Found
TTITLE1=My Baby Wants To Boogie
TTITLE2=You Were Wrong, Pretty Baby
TTITLE3=Red Wine And Moonshine
TTITLE4=Little Girl From Maine
TTITLE5=Pattern B
TTITLE6=Blues In The Alley
TTITLE7=Feel Like Jumping
TTITLE8=Come Back Baby
TTITLE9=Slow Moan
TTITLE10=Under The Counter Blues
TTITLE11=Hoochie Coochie Man
EXTD=YEAR: 2010
EXTT0=
EXTT1=
EXTT2=
EXTT3=
EXTT4=
EXTT5=
EXTT6=
EXTT7=
EXTT8=
EXTT9=
EXTT10=
EXTT11=
PLAYORDER=
